<?xml version="1.0" standalone="no"?>
<!DOCTYPE svg PUBLIC "-//W3C//DTD SVG 20010904//EN"
 "http://www.w3.org/TR/2001/REC-SVG-20010904/DTD/svg10.dtd">
<svg version="1.0" xmlns="http://www.w3.org/2000/svg"
 width="110.000000pt" height="110.000000pt" viewBox="0 0 110.000000 110.000000"
 preserveAspectRatio="xMidYMid meet">
<metadata>
Created by potrace 1.11, written by Peter Selinger 2001-2013
</metadata>
<g transform="translate(0.000000,110.000000) scale(0.100000,-0.100000)"
fill="#000000" stroke="none">
<path d="M305 1035 c-78 -27 -127 -115 -127 -228 0 -40 -3 -47 -28 -57 -44
-18 -109 -85 -131 -134 -21 -49 -18 -99 8 -150 20 -38 87 -101 124 -116 25
-11 28 -17 27 -59 -1 -197 141 -288 315 -203 l57 29 58 -29 c171 -85 309 0
313 193 1 53 3 57 36 74 87 47 145 135 137 208 -7 71 -53 130 -144 188 -22 14
-27 24 -28 70 -5 107 -45 178 -118 211 -55 24 -117 17 -195 -20 l-56 -27 -59
27 c-73 33 -136 41 -189 23z m168 -48 l48 -22 -68 -67 c-61 -61 -75 -70 -138
-86 -39 -11 -79 -23 -89 -27 -18 -8 -19 -5 -13 57 14 155 114 211 260 145z
m339 6 c42 -24 71 -85 76 -157 4 -55 3 -59 -14 -51 -11 4 -50 16 -88 27 -60
16 -79 26 -137 80 -36 35 -67 66 -68 69 -1 7 82 45 114 51 36 8 86 -1 117 -19z
m-201 -103 l54 -49 -115 0 -115 0 54 49 c30 28 58 50 61 50 4 0 31 -22 61 -50z
m95 -107 c27 -29 96 -143 118 -196 15 -36 14 -40 -11 -95 -37 -81 -110 -189
-132 -195 -29 -7 -226 -9 -255 -1 -30 7 -88 88 -135 189 l-31 65 24 53 c32 74
113 195 134 200 9 3 73 5 141 5 119 0 125 -1 147 -25z m-356 2 c0 -3 -15 -29
-33 -58 -18 -29 -41 -70 -52 -92 l-18 -40 -12 36 c-7 19 -16 53 -19 76 l-7 41
58 20 c61 21 83 26 83 17z m479 -16 l62 -21 -7 -41 c-3 -23 -12 -57 -18 -76
l-12 -34 -28 54 c-16 30 -41 73 -57 97 -33 49 -28 50 60 21z m-627 -135 c23
-89 23 -90 4 -159 -31 -116 -24 -110 -77 -74 -127 89 -124 215 6 303 21 15 40
25 41 23 2 -2 14 -44 26 -93z m788 53 c27 -20 67 -81 74 -110 15 -61 -34 -144
-113 -190 l-30 -18 -6 28 c-4 15 -14 55 -24 88 -17 58 -17 64 0 125 9 36 20
78 23 93 6 27 7 28 34 12 15 -9 34 -22 42 -28z m-715 -239 c15 -29 40 -72 56
-95 16 -24 24 -43 20 -43 -5 0 -39 9 -75 21 l-67 20 6 37 c6 38 26 112 31 112
1 0 14 -24 29 -52z m600 -15 c8 -32 14 -63 15 -70 0 -12 -129 -58 -137 -49 -2
2 14 34 37 71 23 38 46 79 51 93 12 32 18 26 34 -45z m-558 -146 c64 -18 78
-26 138 -87 l66 -67 -53 -23 c-140 -61 -242 -1 -256 153 -5 56 -4 60 14 52 10
-4 51 -17 91 -28z m570 -26 c-10 -116 -59 -173 -150 -174 -49 0 -159 36 -156
52 1 3 32 34 69 69 59 55 76 65 130 78 34 8 70 19 79 24 30 17 34 10 28 -49z
m-276 -51 c-30 -28 -58 -50 -61 -50 -3 0 -31 22 -61 50 l-54 49 115 0 115 0
-54 -49z"/>
<path d="M544 752 c-5 -4 -9 -14 -8 -22 3 -43 3 -43 19 -30 22 18 12 67 -11
52z"/>
<path d="M400 692 c0 -21 28 -45 45 -38 17 6 17 7 0 26 -18 20 -45 27 -45 12z"/>
<path d="M660 685 c-7 -8 -9 -22 -6 -32 6 -15 9 -15 28 4 11 12 17 26 14 32
-10 15 -21 14 -36 -4z"/>
<path d="M520 670 c-104 -24 -126 -167 -35 -226 31 -21 99 -20 131 1 74 49 75
162 1 209 -33 21 -58 25 -97 16z"/>
<path d="M357 563 c-26 -7 -15 -27 16 -28 29 -2 44 20 21 29 -9 3 -16 5 -17 5
-1 -1 -10 -3 -20 -6z"/>
<path d="M704 562 c-20 -15 -12 -29 17 -28 16 1 29 5 29 9 0 4 0 11 0 15 0 10
-33 13 -46 4z"/>
<path d="M410 435 c-10 -12 -10 -19 -2 -27 13 -13 42 6 42 28 0 19 -24 18 -40
-1z"/>
<path d="M646 441 c-3 -4 3 -16 14 -26 26 -23 52 -6 30 20 -14 17 -36 20 -44
6z"/>
<path d="M541 396 c-17 -20 -4 -61 13 -47 12 11 15 45 4 56 -3 3 -11 -1 -17
-9z"/>
</g>
</svg>
